<?xml version="1.0" encoding="utf-8"?>
<!-- Generator: Adobe Illustrator 19.0.0, SVG Export Plug-In . SVG Version: 6.00 Build 0)  -->
<svg version="1.1" id="Layer_1" xmlns="http://www.w3.org/2000/svg" xmlns:xlink="http://www.w3.org/1999/xlink" x="0px" y="0px"
	 viewBox="0 0 128 128" style="enable-background:new 0 0 128 128;" xml:space="preserve">
<style type="text/css">
	.st0{fill:#ED2024;}
	.st1{fill:#1FFF2C;}
	.st2{fill:#FF5FD6;}
	.st3{fill:#231F20;}
	.st4{fill:#8AE4FF;}
	.st5{fill:#231FB8;}
	.st6{fill:#D8F400;}
</style>
<g>
	<polygon class="st0" points="0,111.8 0,111.8 0,128 0,128 0,111.8 	"/>
	<path class="st0" d="M128,16.2C128,7.3,120.7,0,111.8,0h0v0H16.2v0h0C7.3,0,0,7.3,0,16.2h0v91.4c1,0.2,2.1,0.4,3.3,0.7
		c9,2.4,11.2,2.6,20,1.6l0.8-0.1l4.2-0.3l7-0.5c6.6,0.4,4.7,3,14.9,2.4l16.2-0.5l4,0v0.1c2.4-0.4,4.8-1.3,7.8-1.7
		c5.7-0.8,13.5-0.4,18.6-0.9c12.8-1.2,19.7,5.2,31.2,2.6L128,16.2L128,16.2z"/>
	<polygon class="st0" points="128,128 128,128 128,111.8 128,111.8 	"/>
</g>
<path class="st1" d="M4.6,79c0.7-1,1.4-2.1,1.8-3.2c0.3-0.9,0.5-2.4,1-3.2c0.6-1,1.6-1.3,2.6-1.5c1.6-0.3,3,2.3,5,3.2
	c0.9,0.4,4.9,1.8,6.1,2.1c2,0.5,4.2,0.9,6.2,1.3c1.1,0.3,2.1,0.4,3.2,0.5c1,0.1,4.7,0.2,4.9,0.5c-1.9,1-3,3.7-3.7,5.6
	c-0.7,2-1.2,4.3-2.1,6.2c-1,2.2-3,3.1-3,5.2c0.1,1,0.3,2.1,0.1,3.2c-0.2,1.2-0.7,2.1-1,3.2c-0.4,1.5-0.9,6.3-1.6,7.7l4.2-0.3
	c0.4-1,0.9-5.6,1-6c0.8-2.3,1.8-4.1,3.4-5.9c1.6-1.7,1.5-3.9,2.4-5.9c1-2.1,2.3-3.9,3.5-5.9c2.2-3.7,3.7-8.4,8.4-9.3
	c0.5-0.1,3.4,2,4.7,3.2c1.5,1.4,3.1,3,4.1,5c1.9,3.8,3.5,9.3,4.1,12.3c0.4,1.7,0.6,1.8,1.8,3.2c0.6,0.7,1.6,2.6,2,3.4
	s0.9,2.7,1.4,3.6c0.2,0.6,0.9,2.3,1.3,3.7l4,0c-1.9-3.9-3.2-8.3-3.8-12.6c-0.2-1.1,0.1-2.2-0.2-3.2c-0.3-0.9-1-1-1.4-1.7
	c-1.1-2-2.3-4.4-2.4-6.8c-0.1-2.1-0.9-4-1-6.1c-0.1-1.1,0-2.1,0-3.1c0-0.4,0-0.9-0.1-1.4c-0.1-0.1-0.2-0.7-0.2-0.9l0.3-0.7
	c-0.2-0.2,2.2-0.1,2.9-0.1c1.2,0,2.3,0,3.5,0.1c2.4,0.1,4.6,0.1,7-0.3c5.3-0.8,7.8-3,9-3.9c4.9-3.5,7.1-9.2,7.1-9.2
	c0.8-1.8,0.8-5,2.5-6.4c2-1.7,5.4-1.6,7.7-2.6c1.3-0.6,2.3-0.9,3.7-0.6c1,0.2,2.9,1.4,3.3-0.3c-0.4-0.3-0.5-0.7-0.7-0.9
	c1.9-0.2,0.1-4.6-0.7-5.5c-1.2-1.3-3.1-1.9-5.2-2.5c-2.4-0.7-4.7-1.5-7-1c-4,0.8-3.7-1.5-6.1-1.5c-2.8,0-7.9,0.1-8.8,2.9
	C79.4,43.9,79,44,78.3,45c-0.6,0.9,0.1,1.6-0.2,2.6c-0.4,1-0.8,4.6-1.3,5.8c-0.8,2.1-1.8,4.7-3.6,4.7c-2.5,0.3-4.5,0.4-6.5-0.3
	c-1.2-0.5-3.3-1.2-4.3-1.6c-4.7-1.9-5.5-4.1-5.5-4.1c-0.5-0.8-1.8-2.1-2.3-3.9c-0.5-2-1.4-3.6-1.8-4.6c-0.3-1-1.3-2.7-2-4.5
	c-0.9-2.3-2.2-4-3.2-4.9c-1.5-1.3-2.8-3.3-5.8-2.7c-0.5,0.1-2.4,0.2-3.9,1.4c-1.1,0.8-1.4,2.5-2.3,4c-0.5,0.8-1.4,3.3-2.3,5.3
	c-0.6,1.4-0.9,2.5-1.5,3c-0.5,0.4-1.1,0.9-1.9,0.6c-0.5-0.2-1-0.5-1.5-0.9c-0.7-0.6-2.2-3.2-3.2-5.2c-0.8-1.7-2.6-4.2-3.6-5.6
	c-1.4-2-2.3-2.5-4.5-2.5c-4.7,0-5,2.6-7.1,6.4c-1,1.6-1.3,4.3-3.1,6.4c-1.1,1.2-4.4,6.1-6.7,6.9H0v34.6c0.2-0.5,0.3-0.9,0.5-1.3
	C1.4,82.7,3.4,81,4.6,79z"/>
<path id="XMLID_2_" class="st2" d="M96.8,108.4c-5.1,0.5-12.9,0.1-18.6,0.9c-3,0.4-5.4,1.3-7.8,1.7v-0.1l-4,0l-16.2,0.5
	c-10.2,0.6-8.3-2-14.9-2.4l-7,0.5l-4.2,0.3l-0.8,0.1c-8.8,1-11,0.8-20-1.6C2.1,108,1,107.8,0,107.6v4.2l0,0
	c0,8.9,7.3,16.2,16.2,16.2v0h95.6v0c8.9,0,16.2-7.3,16.2-16.2l0,0V111C116.5,113.6,109.6,107.2,96.8,108.4z"/>
<path id="XMLID_5_" class="st3" d="M16.2,0L16.2,0L16.2,0L0,0v16.2h0C0,7.3,7.3,0,16.2,0z"/>
<path id="XMLID_4_" class="st4" d="M0,111.8L0,111.8L0,111.8L0,128h16.2v0C7.3,128,0,120.7,0,111.8z"/>
<path id="XMLID_3_" class="st5" d="M111.8,0L111.8,0L111.8,0L128,0v16.2h0C128,7.3,120.7,0,111.8,0z"/>
<path id="XMLID_1_" class="st6" d="M128,111.8L128,111.8L128,111.8l0,16.2h-16.2v0C120.7,128,128,120.7,128,111.8z"/>
</svg>
