<?xml version="1.0" encoding="utf-8"?>
<!-- Generator: Adobe Illustrator 19.0.0, SVG Export Plug-In . SVG Version: 6.00 Build 0)  -->
<svg version="1.1" id="Layer_1" xmlns="http://www.w3.org/2000/svg" xmlns:xlink="http://www.w3.org/1999/xlink" x="0px" y="0px"
	 viewBox="0 0 128 128" style="enable-background:new 0 0 128 128;" xml:space="preserve">
<style type="text/css">
	.st0{fill:#494545;}
	.st1{fill:url(#XMLID_11_);}
	.st2{fill:url(#XMLID_12_);}
	.st3{fill:url(#XMLID_17_);}
	.st4{fill:url(#XMLID_18_);}
</style>
<g id="XMLID_2_">
	<g id="XMLID_3_">
		<path id="XMLID_16_" class="st0" d="M64.2,75.7L64.2,75.7C64.2,75.6,64.2,75.5,64.2,75.7z"/>
		<g id="XMLID_4_">
			<g id="XMLID_5_">
				
					<linearGradient id="XMLID_11_" gradientUnits="userSpaceOnUse" x1="-693.8" y1="59.1507" x2="-693.8" y2="59.0099" gradientTransform="matrix(1 0 0 -1 758 134.7261)">
					<stop  offset="0" style="stop-color:#F19220"/>
					<stop  offset="1" style="stop-color:#EB6924"/>
				</linearGradient>
				<path id="XMLID_15_" class="st1" d="M64.2,75.7L64.2,75.7C64.2,75.6,64.2,75.5,64.2,75.7z"/>
				<g id="XMLID_13_">
					
						<linearGradient id="XMLID_12_" gradientUnits="userSpaceOnUse" x1="-710.65" y1="58.1744" x2="-710.65" y2="23.1815" gradientTransform="matrix(1 0 0 -1 758 134.7261)">
						<stop  offset="0" style="stop-color:#F19220"/>
						<stop  offset="1" style="stop-color:#EB6924"/>
					</linearGradient>
					<path id="XMLID_14_" class="st2" d="M65.1,107.2c-0.5-0.9-1-2.8-1.4-3.6c-0.4-0.8-1.4-2.7-2-3.4c-1.2-1.4-1.4-1.5-1.8-3.2
						c-0.6-3-2.2-8.5-4.1-12.3c-1-2-2.6-3.6-4.1-5c-1.3-1.2-4.2-3.3-4.7-3.2c-4.7,0.9-6.2,5.6-8.4,9.3c-1.2,2-2.5,3.8-3.5,5.9
						c-0.9,2-0.8,4.2-2.4,5.9c-1.6,1.8-2.6,3.6-3.4,5.9c-0.1,0.4-0.6,5-1,6l0,0l7-0.5c6.6,0.4,4.7,3,14.9,2.4l16.2-0.5l0,0
						C66,109.5,65.3,107.8,65.1,107.2z"/>
				</g>
				<g id="XMLID_8_">
					<g id="XMLID_9_">
						
							<linearGradient id="XMLID_17_" gradientUnits="userSpaceOnUse" x1="-693.9995" y1="134.7261" x2="-693.9995" y2="23.0988" gradientTransform="matrix(1 0 0 -1 758 134.7261)">
							<stop  offset="0" style="stop-color:#F19220"/>
							<stop  offset="1" style="stop-color:#EB6924"/>
						</linearGradient>
						<path id="XMLID_10_" class="st3" d="M112,0H16.2C7.3,0,0,7.3,0,16.2v35.1h0.2c2.3-0.8,5.6-5.7,6.7-6.9C8.7,42.3,9,39.6,10,38
							c2.1-3.8,2.4-6.4,7.1-6.4c2.2,0,3.1,0.5,4.5,2.5c1,1.4,2.8,3.9,3.6,5.6c1,2,2.5,4.6,3.2,5.2c0.5,0.4,1,0.7,1.5,0.9
							c0.8,0.3,1.4-0.2,1.9-0.6c0.6-0.5,0.9-1.6,1.5-3c0.9-2,1.8-4.5,2.3-5.3c0.9-1.5,1.2-3.2,2.3-4c1.5-1.2,3.4-1.3,3.9-1.4
							c3-0.6,4.3,1.4,5.8,2.7c1,0.9,2.3,2.6,3.2,4.9c0.7,1.8,1.7,3.5,2,4.5c0.4,1,1.3,2.6,1.8,4.6c0.5,1.8,1.8,3.1,2.3,3.9
							c0,0,0.8,2.2,5.5,4.1c1,0.4,3.1,1.1,4.3,1.6c2,0.7,4,0.6,6.5,0.3c1.8,0,2.8-2.6,3.6-4.7c0.5-1.2,0.9-4.8,1.3-5.8
							c0.3-1-0.4-1.7,0.2-2.6c0.7-1,1.1-1.1,1.5-2.4c0.9-2.8,6-2.9,8.8-2.9c2.4,0,2.1,2.3,6.1,1.5c2.3-0.5,4.6,0.3,7,1
							c2.1,0.6,4,1.2,5.2,2.5c0.8,0.9,2.6,5.3,0.7,5.5c0.2,0.2,0.3,0.6,0.7,0.9c-0.4,1.7-2.3,0.5-3.3,0.3c-1.4-0.3-2.4,0-3.7,0.6
							c-2.3,1-5.7,0.9-7.7,2.6c-1.7,1.4-1.7,4.6-2.5,6.4c0,0-2.2,5.7-7.1,9.2c-1.2,0.9-3.7,3.1-9,3.9c-2.4,0.4-4.6,0.4-7,0.3
							c-1.2-0.1-2.3-0.1-3.5-0.1c-0.7,0-3.1-0.1-2.9,0.1l-0.3,0.7c0,0.2,0.1,0.8,0.2,0.9c0.1,0.5,0.1,1,0.1,1.4c0,1-0.1,2,0,3.1
							c0.1,2.1,0.9,4,1,6.1c0.1,2.4,1.3,4.8,2.4,6.8c0.4,0.7,1.1,0.8,1.4,1.7c0.3,1,0,2.1,0.2,3.2c0.6,4.3,1.9,8.7,3.8,12.6v0.1l0,0
							c2.4-0.4,4.8-1.3,7.8-1.7c5.7-0.8,13.5-0.4,18.6-0.9c12.8-1.2,19.7,5.2,31.2,2.6V16.2C128.1,7.2,120.9,0,112,0z M64.2,75.7
							C64.2,75.5,64.2,75.6,64.2,75.7L64.2,75.7z"/>
					</g>
				</g>
				<g id="XMLID_6_">
					
						<linearGradient id="XMLID_18_" gradientUnits="userSpaceOnUse" x1="-740.3" y1="63.4833" x2="-740.3" y2="23.9481" gradientTransform="matrix(1 0 0 -1 758 134.7261)">
						<stop  offset="0" style="stop-color:#F19220"/>
						<stop  offset="1" style="stop-color:#EB6924"/>
					</linearGradient>
					<path id="XMLID_7_" class="st4" d="M29.6,90.5c0.9-1.9,1.4-4.2,2.1-6.2c0.7-1.9,1.8-4.6,3.7-5.6c-0.2-0.3-3.9-0.4-4.9-0.5
						c-1.1-0.1-2.1-0.2-3.2-0.5c-2-0.4-4.2-0.8-6.2-1.3c-1.2-0.3-5.2-1.7-6.1-2.1c-2-0.9-3.4-3.5-5-3.2c-1,0.2-2,0.5-2.6,1.5
						c-0.5,0.8-0.7,2.3-1,3.2C6,76.9,5.3,78,4.6,79c-1.2,2-3.2,3.7-4.1,5.6C0.3,85,0.2,85.4,0,85.9v0.2v7.1v12.6v1.8
						c1,0.2,2.1,0.4,3.3,0.7c9,2.4,11.2,2.6,20,1.6l0.8-0.1l0,0c0.7-1.4,1.2-6.2,1.6-7.7c0.3-1.1,0.8-2,1-3.2c0.2-1.1,0-2.2-0.1-3.2
						C26.6,93.6,28.6,92.7,29.6,90.5z"/>
				</g>
			</g>
		</g>
	</g>
</g>
</svg>
