<?xml version="1.0" encoding="utf-8"?>
<!-- Generator: Adobe Illustrator 19.0.0, SVG Export Plug-In . SVG Version: 6.00 Build 0)  -->
<svg version="1.1" id="Layer_1" xmlns="http://www.w3.org/2000/svg" xmlns:xlink="http://www.w3.org/1999/xlink" x="0px" y="0px"
	 viewBox="0 0 128 128" style="enable-background:new 0 0 128 128;" xml:space="preserve">
<style type="text/css">
	.st0{fill:#EC2527;}
	.st1{fill:#FFFFFF;}
	.st2{fill:#EB2829;}
</style>
<g id="XMLID_1_">
	<polygon id="XMLID_3_" class="st0" points="128,128 128,128 128,111.8 128,111.8 	"/>
	<polygon id="XMLID_8_" class="st0" points="0,111.8 0,111.8 0,128 0,128 	"/>
</g>
<g id="XMLID_9_">
	<g id="XMLID_12_">
		<polygon id="XMLID_25_" points="0,111.8 0,128 0,128 0,111.8 0,111.8 		"/>
	</g>
	<g id="XMLID_11_">
		<path id="XMLID_31_" d="M102.8,9L102.8,9h9c3.9,0,7.2,3.3,7.2,7.2V22v80.3c-1.5-0.3-3.1-0.6-4.8-1c-4-1-8.5-2-14.1-2
			c-1.3,0-2.7,0.1-4.1,0.2c-1.9,0.2-4.4,0.2-7,0.3c-4,0.1-8.1,0.1-11.9,0.7c-2.2,0.3-4.1,0.8-5.7,1.2c-0.5,0.1-0.9,0.2-1.3,0.3h-3.6
			h-0.1h-0.1l-16.2,0.5H50h-0.1c-0.8,0-1.6,0.1-2.3,0.1c-2.1,0-2.4-0.2-3.4-0.6c-2-0.8-4.3-1.7-8.2-1.9h-0.6h-0.6l-7,0.5l-4.2,0.3
			h-0.2h-0.2l-0.7,0.1c-2.7,0.3-4.8,0.5-6.5,0.5c-1.9,0-3.5-0.2-6.7-1V25.2l0,0v-9C9,12.3,12.3,9,16.2,9h9H102.8 M111.8,0H16.2l0,0
			l0,0C7.3,0,0,7.3,0,16.2l0,0v91.4c1,0.2,2.1,0.4,3.3,0.7c5.7,1.5,8.7,2.2,12.4,2.2c2.1,0,4.4-0.2,7.6-0.6l0.8-0.1l4.2-0.3l7-0.5
			c5.9,0.4,5,2.5,12.1,2.5c0.8,0,1.7,0,2.8-0.1l16.2-0.5h4v0.1c2.4-0.4,4.8-1.3,7.8-1.7c5.7-0.8,13.5-0.4,18.6-0.9
			c1.1-0.1,2.2-0.2,3.2-0.2c8.8,0,14.8,3.4,22.4,3.4c1.8,0,3.6-0.2,5.6-0.6V16.2l0,0C128,7.3,120.7,0,111.8,0L111.8,0L111.8,0
			L111.8,0z"/>
	</g>
	<g id="XMLID_10_">
		<polygon id="XMLID_22_" points="128,111.8 128,111.8 128,128 128,128 		"/>
	</g>
</g>
<polygon id="XMLID_5_" class="st1" points="76.7,112.6 -7.2,119.9 -2.3,86.2 -2.3,54.2 -1,45 1.6,44.9 9.6,34.7 71.1,101.9 "/>
<g id="XMLID_7_">
	<path id="XMLID_27_" class="st2" d="M42.9,31.4c2.3,0,3.4,1.7,4.7,2.8c1,0.9,2.3,2.6,3.2,4.9c0.7,1.8,1.7,3.5,2,4.5
		c0.4,1,1.3,2.6,1.8,4.6c0.5,1.8,1.8,3.1,2.3,3.9c0,0,0.8,2.2,5.5,4.1c1,0.4,3.1,1.1,4.3,1.6c1.1,0.4,2.2,0.5,3.4,0.5
		c1,0,2-0.1,3.1-0.2c1.8,0,2.8-2.6,3.6-4.7c0.5-1.2,0.9-4.8,1.3-5.8c0.3-1-0.4-1.7,0.2-2.6c0.7-1,1.1-1.1,1.5-2.4
		c0.9-2.8,6-2.9,8.8-2.9c2,0,2.1,1.7,4.6,1.7c0.4,0,0.9-0.1,1.5-0.2c0.5-0.1,1-0.2,1.5-0.2c1.8,0,3.6,0.6,5.5,1.2
		c2.1,0.6,4,1.2,5.2,2.5c0.8,0.9,2.6,5.3,0.7,5.5c0.2,0.2,0.3,0.6,0.7,0.9c-0.2,0.7-0.6,0.9-1.1,0.9c-0.7,0-1.6-0.5-2.2-0.6
		c-0.4-0.1-0.7-0.1-1.1-0.1c-0.9,0-1.7,0.3-2.6,0.7c-2.3,1-5.7,0.9-7.7,2.6c-1.7,1.4-1.7,4.6-2.5,6.4c0,0-2.2,5.7-7.1,9.2
		c-1.2,0.9-3.7,3.1-9,3.9c-1.6,0.3-3.1,0.4-4.7,0.4c-0.8,0-1.5,0-2.3-0.1c-1.2-0.1-2.3-0.1-3.5-0.1c-0.3,0-1.1,0-1.8,0
		s-1.2,0-1.1,0.1l-0.3,0.7c0,0.2,0.1,0.8,0.2,0.9c0.1,0.5,0.1,1,0.1,1.4c0,1-0.1,2,0,3.1c0.1,2.1,0.9,4,1,6.1
		c0.1,2.4,1.3,4.8,2.4,6.8c0.4,0.7,1.1,0.8,1.4,1.7c0.3,1,0,2.1,0.2,3.2c0.6,4.3,1.9,8.7,3.8,12.6h-4c-0.4-1.4-1.1-3.1-1.3-3.7
		c-0.5-0.9-1-2.8-1.4-3.6c-0.4-0.8-1.4-2.7-2-3.4c-1.2-1.4-1.4-1.5-1.8-3.2c-0.6-3-2.2-8.5-4.1-12.3c-1-2-2.6-3.6-4.1-5
		c-1.3-1.2-4.1-3.2-4.7-3.2l0,0c-4.7,0.9-6.2,5.6-8.4,9.3c-1.2,2-2.5,3.8-3.5,5.9c-0.9,2-0.8,4.2-2.4,5.9c-1.6,1.8-2.6,3.6-3.4,5.9
		c-0.1,0.4-0.6,5-1,6l-4.2,0.3c0.7-1.4,1.2-6.2,1.6-7.7c0.3-1.1,0.8-2,1-3.2c0.2-1.1,0-2.2-0.1-3.2c0-2.1,2-3,3-5.2
		c0.9-1.9,1.4-4.2,2.1-6.2c0.7-1.9,1.8-4.6,3.7-5.6c-0.2-0.3-3.9-0.4-4.9-0.5c-1.1-0.1-2.1-0.2-3.2-0.5c-2-0.4-4.2-0.8-6.2-1.3
		c-1.2-0.3-5.2-1.7-6.1-2.1c-1.9-0.9-3.2-3.2-4.7-3.2c-0.1,0-0.2,0-0.3,0c-1,0.2-2,0.5-2.6,1.5c-0.5,0.8-0.7,2.3-1,3.2
		C6,76.9,5.3,78,4.6,79c-1.2,2-3.2,3.7-4.1,5.6C0.3,85,0.2,85.4,0,85.9V51.3h0.2c2.3-0.8,5.6-5.7,6.7-6.9C8.7,42.3,9,39.6,10,38
		c2.1-3.8,2.4-6.4,7.1-6.4c2.2,0,3.1,0.5,4.5,2.5c1,1.4,2.8,3.9,3.6,5.6c1,2,2.5,4.6,3.2,5.2c0.5,0.4,1,0.7,1.5,0.9
		c0.2,0.1,0.3,0.1,0.5,0.1c0.6,0,1-0.4,1.4-0.7c0.6-0.5,0.9-1.6,1.5-3c0.9-2,1.8-4.5,2.3-5.3c0.9-1.5,1.2-3.2,2.3-4
		c1.5-1.2,3.4-1.3,3.9-1.4C42.2,31.4,42.5,31.4,42.9,31.4 M42.9,26.4L42.9,26.4c-0.6,0-1.3,0.1-2,0.2h-0.1c-1,0.1-3.6,0.5-5.9,2.3
		c-1.7,1.3-2.5,3-3,4.3c-0.2,0.4-0.3,0.8-0.5,1.1c-0.5,0.8-0.9,1.8-1.5,3.4c0-0.1-0.1-0.1-0.1-0.2c-0.9-1.9-2.4-4.1-3.9-6.2
		l-0.1-0.1c-2.3-3.3-4.7-4.6-8.6-4.6c-7,0-9.2,4.4-10.6,7.3C6.2,34.4,6,35,5.7,35.5c-0.6,1-1,2.1-1.4,3.1s-0.7,1.9-1.2,2.5
		c-0.4,0.4-0.8,0.9-1.3,1.6c-0.7,0.9-2.4,3-3.3,3.8C-3.5,47.1-5,49-5,51.3v34.6c0,2.4,1.7,4.5,4.1,4.9c0.3,0.1,0.6,0.1,0.9,0.1
		c2,0,3.9-1.2,4.6-3.1c0.1-0.3,0.2-0.5,0.3-0.8c0-0.1,0-0.1,0.1-0.2l0,0c0.2-0.5,0.9-1.2,1.5-1.9C7.2,84,8.1,83,8.8,81.8
		c0.7-1.1,1.6-2.5,2.2-4c0.6,0.4,1.2,0.8,1.9,1.1c1.2,0.5,5.5,2,6.9,2.4c1.7,0.4,3.4,0.8,5.1,1.1c0.4,0.1,0.8,0.2,1.2,0.2
		c0.3,0.1,0.5,0.1,0.8,0.2c-0.3,0.8-0.5,1.6-0.7,2.3c-0.4,1.2-0.7,2.4-1.1,3.3c0,0,0,0,0,0.1c-0.1,0.3-0.4,0.6-0.8,1.1
		c-1,1.2-2.7,3.1-2.7,6.2c0,0.2,0,0.3,0,0.5s0,0.4,0.1,0.6c0,0.4,0.1,1,0.1,1.2c0,0,0,0,0,0.1c0,0.2-0.2,0.6-0.3,1
		c-0.2,0.5-0.4,1-0.6,1.7c-0.2,0.8-0.4,1.9-0.6,3.2c-0.2,1.1-0.5,3.1-0.7,3.8c-0.7,1.6-0.6,3.4,0.4,4.9c0.9,1.4,2.5,2.2,4.2,2.2
		c0.1,0,0.2,0,0.4,0l4.2-0.3c1.9-0.1,3.6-1.4,4.3-3.1c0.4-1.1,0.7-2.7,1.1-5.9c0-0.3,0.1-0.5,0.1-0.7c0.6-1.5,1.2-2.7,2.2-3.8
		c1.8-2,2.4-4.2,2.8-5.8c0.1-0.5,0.3-1.1,0.4-1.4c0.5-1.1,1.3-2.3,2-3.5c0.4-0.6,0.8-1.3,1.2-2c0.5-0.8,0.9-1.6,1.3-2.4
		c1-1.9,1.7-3.2,2.5-3.9c0.6,0.4,1.2,0.9,1.6,1.3c1.1,1,2.4,2.3,3,3.6c1.7,3.4,3.2,8.5,3.7,11c0,0.1,0,0.1,0,0.2
		c0.6,2.5,1.2,3.4,2.6,5l0.3,0.3c0.2,0.3,0.8,1.3,1.3,2.4c0.1,0.2,0.2,0.7,0.3,1c0.3,0.8,0.6,1.6,0.9,2.4c0.1,0.2,0.1,0.4,0.2,0.6
		c0.3,0.7,0.6,1.7,0.9,2.5c0.6,2.1,2.6,3.6,4.8,3.6h4c1.7,0,3.3-0.9,4.2-2.3c0.9-1.5,1-3.3,0.3-4.8c-1.6-3.4-2.8-7.2-3.3-11.1
		c0-0.1,0-0.1,0-0.2s0-0.3,0-0.5c0-0.8,0-2-0.3-3.3v-0.1c-0.5-1.6-1.5-2.5-2-3c-0.6-1.1-1.5-2.8-1.5-4.1c-0.1-1.5-0.4-2.8-0.6-3.9
		c-0.2-0.8-0.4-1.6-0.4-2.2c0-0.1,0-0.1,0-0.2c0-0.2,0-0.5,0-0.7c0.3,0,0.7,0,1,0.1c0.1,0,0.1,0,0.2,0c1,0,1.8,0.1,2.6,0.1
		c2,0,3.7-0.1,5.4-0.4c6.1-0.9,9.4-3.4,11-4.6l0.2-0.2c5.7-4.1,8.3-10.2,8.7-11.3c0.4-1,0.7-2.1,0.9-3c0.1-0.5,0.3-1.2,0.4-1.6
		c0.5-0.2,1.6-0.4,2.3-0.6c1.2-0.3,2.6-0.6,4-1.1h0.1c0.3-0.1,0.5-0.2,0.6-0.2c0,0,0.1,0,0.2,0.1c0.7,0.3,1.8,0.6,3.1,0.6
		c2.9,0,5.3-1.9,5.9-4.8c0.1-0.6,0.2-1.1,0.1-1.7c0.8-3.7-1.6-8-2.6-9.2c0,0,0,0-0.1-0.1c-2.2-2.4-5.3-3.3-7.5-3.9l-0.6-0.2
		c-1.9-0.5-3.9-1.2-6.3-1.2c-0.9,0-1.7,0.1-2.5,0.3c-0.1,0-0.2,0-0.2,0c-0.8-0.6-2.4-1.6-4.9-1.6c-3.4,0-11.5,0-13.6,6.3
		c-0.2,0.2-0.5,0.6-0.8,1.1c0,0,0,0.1-0.1,0.1c-1.2,1.8-1.1,3.6-1,4.6c-0.2,0.7-0.3,1.5-0.5,2.5c-0.1,0.7-0.3,1.8-0.5,2.2
		c0,0,0,0,0,0.1c-0.2,0.4-0.4,1.1-0.7,1.6c-0.5,0-1,0.1-1.4,0.1c-0.7,0-1.2-0.1-1.6-0.2c-0.8-0.3-1.7-0.6-2.6-1
		c-0.6-0.2-1.2-0.4-1.6-0.6c-1.9-0.8-2.7-1.5-2.9-1.7c-0.1-0.1-0.1-0.3-0.2-0.4c-0.3-0.4-0.5-0.8-0.8-1.1c-0.4-0.5-0.8-1-0.9-1.4
		C59,45.5,58.3,44,57.8,43c-0.1-0.2-0.2-0.4-0.3-0.6c-0.3-0.8-0.6-1.6-1.1-2.4c-0.3-0.7-0.7-1.4-1-2.1c-1.1-2.7-2.7-5.2-4.5-6.8
		c0,0,0,0-0.1-0.1c-0.2-0.2-0.4-0.3-0.6-0.5C49,28.7,46.7,26.4,42.9,26.4L42.9,26.4z"/>
</g>
<path id="XMLID_2_" class="st1" d="M96.8,108.4c-5.1,0.5-12.9,0.1-18.6,0.9c-3,0.4-5.4,1.3-7.8,1.7v-0.1h-4l-16.2,0.5
	c-10.2,0.6-8.3-2-14.9-2.4l-7,0.5l-4.2,0.3l-0.8,0.1c-8.8,1-11,0.8-20-1.6C2.1,108,1,107.8,0,107.6v4.2l0,0
	c0,8.9,7.3,16.2,16.2,16.2l0,0h95.6l0,0c8.9,0,16.2-7.3,16.2-16.2l0,0V111C116.5,113.6,109.6,107.2,96.8,108.4z"/>
<rect id="XMLID_4_" x="-14.3" y="33.7" class="st1" width="14.3" height="68.5"/>
</svg>
