<?xml version="1.0" encoding="utf-8"?>
<!-- Generator: Adobe Illustrator 19.0.0, SVG Export Plug-In . SVG Version: 6.00 Build 0)  -->
<svg version="1.1" id="Layer_1" xmlns="http://www.w3.org/2000/svg" xmlns:xlink="http://www.w3.org/1999/xlink" x="0px" y="0px"
	 viewBox="0 0 128 128" style="enable-background:new 0 0 128 128;" xml:space="preserve">
<style type="text/css">
	.st0{fill:#4374BA;}
</style>
<g id="XMLID_1_">
	<polygon id="XMLID_3_" class="st0" points="128,128 128,128 128,111.8 128,111.8 	"/>
	<polygon id="XMLID_8_" class="st0" points="0,111.8 0,111.8 0,128 0,128 	"/>
</g>
<g id="XMLID_9_">
	<polygon id="XMLID_11_" class="st0" points="0,111.8 0,128 0,128 0,111.8 0,111.8 	"/>
	<polygon id="XMLID_7_" class="st0" points="128,111.8 128,111.8 128,128 128,128 	"/>
</g>
<path id="XMLID_4_" d="M128,16.2C128,7.3,120.7,0,111.8,0l0,0l0,0H16.2l0,0l0,0C7.3,0,0,7.3,0,16.2l0,0V45l1.6-0.1L9,35.4V25.2l0,0
	v-9C9,12.3,12.3,9,16.2,9h9h77.6l0,0h9c3.9,0,7.2,3.3,7.2,7.2V22v80.3c-1.5-0.3-3.1-0.6-4.8-1c-4-1-8.5-2-14.1-2
	c-1.3,0-2.7,0.1-4.1,0.2c-1.9,0.2-4.4,0.2-7,0.3c-4,0.1-8.1,0.1-11.9,0.7c-2.2,0.3-4.1,0.8-5.7,1.2c-0.2,0-0.3,0.1-0.5,0.1l0.2,0.3
	l4.2,7.9c0.9-0.2,1.9-0.4,2.9-0.6c5.7-0.8,13.5-0.4,18.6-0.9c1.1-0.1,2.2-0.2,3.2-0.2c8.8,0,14.8,3.4,22.4,3.4
	c1.8,0,3.6-0.2,5.6-0.6L128,16.2L128,16.2z"/>
<g id="XMLID_6_">
	<path id="XMLID_12_" class="st0" d="M27.3,77.7c-2-0.4-4.2-0.8-6.2-1.3c-1.2-0.3-5.2-1.7-6.1-2.1c-1.9-0.9-3.2-3.2-4.7-3.2
		c-0.1,0-0.2,0-0.3,0c-1,0.2-2,0.5-2.6,1.5c-0.5,0.8-0.7,2.3-1,3.2C6,76.9,5.3,78,4.6,79c-1.2,2-3.2,3.7-4.1,5.6
		C0.3,85,0.2,85.4,0,85.9v5c2,0,3.9-1.2,4.6-3.1c0.1-0.3,0.2-0.5,0.3-0.8c0-0.1,0-0.1,0.1-0.2l0,0c0.2-0.5,0.9-1.2,1.5-1.9
		C7.2,84,8.1,83,8.8,81.8c0.7-1.1,1.6-2.5,2.2-4c0.6,0.4,1.2,0.8,1.9,1.1c1.2,0.5,5.5,2,6.9,2.4c1.7,0.4,3.4,0.8,5.1,1.1
		c0.4,0.1,0.8,0.2,1.2,0.2c0.3,0.1,0.5,0.1,0.8,0.2c-0.3,0.8-0.5,1.6-0.7,2.3c-0.4,1.2-0.7,2.4-1.1,3.3c0,0,0,0,0,0.1
		c-0.1,0.3-0.4,0.6-0.8,1.1c-1,1.2-2.7,3.1-2.7,6.2c0,0.2,0,0.3,0,0.5s0,0.4,0.1,0.6c0,0.4,0.1,1,0.1,1.2c0,0,0,0,0,0.1
		c0,0.2-0.2,0.6-0.3,1c-0.2,0.5-0.4,1-0.6,1.7c-0.2,0.8-0.4,1.9-0.6,3.2c-0.2,1.1-0.5,3.1-0.7,3.8c-0.4,0.8-0.5,1.7-0.4,2.6
		c1.2-0.1,2.6-0.2,4.2-0.4l0.8-0.1c0.7-1.4,1.2-6.2,1.6-7.7c0.3-1.1,0.8-2,1-3.2c0.2-1.1,0-2.2-0.1-3.2c0-2.1,2-3,3-5.2
		c0.9-1.9,1.4-4.2,2.1-6.2c0.7-1.9,1.8-4.6,3.7-5.6c-0.2-0.3-3.9-0.4-4.9-0.5C29.4,78.1,28.4,78,27.3,77.7z"/>
	<path id="XMLID_14_" class="st0" d="M63.7,103.6c-0.4-0.8-1.4-2.7-2-3.4c-1.2-1.4-1.4-1.5-1.8-3.2c-0.6-3-2.2-8.5-4.1-12.3
		c-1-2-2.6-3.6-4.1-5c-1.3-1.2-4.1-3.2-4.7-3.2l0,0c-4.7,0.9-6.2,5.6-8.4,9.3c-1.2,2-2.5,3.8-3.5,5.9c-0.9,2-0.8,4.2-2.4,5.9
		c-1.6,1.8-2.6,3.6-3.4,5.9c-0.1,0.4-0.6,5-1,6l5.2-0.4c0.2-0.9,0.3-2.1,0.6-3.7c0-0.3,0.1-0.5,0.1-0.7c0.6-1.5,1.2-2.7,2.2-3.8
		c1.8-2,2.4-4.2,2.8-5.8c0.1-0.5,0.3-1.1,0.4-1.4c0.5-1.1,1.3-2.3,2-3.5c0.4-0.6,0.8-1.3,1.2-2c0.5-0.8,0.9-1.6,1.3-2.4
		c1-1.9,1.7-3.2,2.5-3.9c0.6,0.4,1.2,0.9,1.6,1.3c1.1,1,2.4,2.3,3,3.6c1.7,3.4,3.2,8.5,3.7,11c0,0.1,0,0.1,0,0.2
		c0.6,2.5,1.2,3.4,2.6,5l0.3,0.3c0.2,0.3,0.8,1.3,1.3,2.4c0.1,0.2,0.2,0.7,0.3,1c0.3,0.8,0.6,1.6,0.9,2.4c0.1,0.2,0.1,0.4,0.2,0.6
		c0.1,0.4,0.3,0.8,0.5,1.3l5.2-0.2c-0.4-1.4-1.1-3.1-1.3-3.7C64.6,106.3,64.1,104.4,63.7,103.6z"/>
	<path id="XMLID_19_" class="st0" d="M0,51.3h0.2c2.3-0.8,5.6-5.7,6.7-6.9C8.7,42.3,9,39.6,10,38c2.1-3.8,2.4-6.4,7.1-6.4
		c2.2,0,3.1,0.5,4.5,2.5c1,1.4,2.8,3.9,3.6,5.6c1,2,2.5,4.6,3.2,5.2c0.5,0.4,1,0.7,1.5,0.9c0.2,0.1,0.3,0.1,0.5,0.1
		c0.6,0,1-0.4,1.4-0.7c0.6-0.5,0.9-1.6,1.5-3c0.9-2,1.8-4.5,2.3-5.3c0.9-1.5,1.2-3.2,2.3-4c1.5-1.2,3.4-1.3,3.9-1.4
		c0.4-0.1,0.7-0.1,1.1-0.1c2.3,0,3.4,1.7,4.7,2.8c1,0.9,2.3,2.6,3.2,4.9c0.7,1.8,1.7,3.5,2,4.5c0.4,1,1.3,2.6,1.8,4.6
		c0.5,1.8,1.8,3.1,2.3,3.9c0,0,0.8,2.2,5.5,4.1c1,0.4,3.1,1.1,4.3,1.6c1.1,0.4,2.2,0.5,3.4,0.5c1,0,2-0.1,3.1-0.2
		c1.8,0,2.8-2.6,3.6-4.7c0.5-1.2,0.9-4.8,1.3-5.8c0.3-1-0.4-1.7,0.2-2.6c0.7-1,1.1-1.1,1.5-2.4c0.9-2.8,6-2.9,8.8-2.9
		c2,0,2.1,1.7,4.6,1.7c0.4,0,0.9-0.1,1.5-0.2c0.5-0.1,1-0.2,1.5-0.2c1.8,0,3.6,0.6,5.5,1.2c2.1,0.6,4,1.2,5.2,2.5
		c0.8,0.9,2.6,5.3,0.7,5.5c0.2,0.2,0.3,0.6,0.7,0.9c-0.2,0.7-0.6,0.9-1.1,0.9c-0.7,0-1.6-0.5-2.2-0.6c-0.4-0.1-0.7-0.1-1.1-0.1
		c-0.9,0-1.7,0.3-2.6,0.7c-2.3,1-5.7,0.9-7.7,2.6c-1.7,1.4-1.7,4.6-2.5,6.4c0,0-2.2,5.7-7.1,9.2c-1.2,0.9-3.7,3.1-9,3.9
		c-1.6,0.3-3.1,0.4-4.7,0.4c-0.8,0-1.5,0-2.3-0.1c-1.2-0.1-2.3-0.1-3.5-0.1c-0.3,0-1.1,0-1.8,0s-1.2,0-1.1,0.1l-0.3,0.7
		c0,0.2,0.1,0.8,0.2,0.9c0.1,0.5,0.1,1,0.1,1.4c0,1-0.1,2,0,3.1c0.1,2.1,0.9,4,1,6.1c0.1,2.4,1.3,4.8,2.4,6.8
		c0.4,0.7,1.1,0.8,1.4,1.7c0.3,1,0,2.1,0.2,3.2c0.6,4.3,1.9,8.7,3.8,12.6v0.1c1.6-0.3,3.2-0.7,4.9-1.1c-0.1-0.4-0.2-0.8-0.4-1.2
		c-1.6-3.4-2.8-7.2-3.3-11.1c0-0.1,0-0.1,0-0.2s0-0.3,0-0.5c0-0.8,0-2-0.3-3.3v-0.1c-0.5-1.6-1.5-2.5-2-3c-0.6-1.1-1.5-2.8-1.5-4.1
		c-0.1-1.5-0.4-2.8-0.6-3.9c-0.2-0.8-0.4-1.6-0.4-2.2c0-0.1,0-0.1,0-0.2c0-0.2,0-0.5,0-0.7c0.3,0,0.7,0,1,0.1c0.1,0,0.1,0,0.2,0
		c1,0,1.8,0.1,2.6,0.1c2,0,3.7-0.1,5.4-0.4c6.1-0.9,9.4-3.4,11-4.6l0.2-0.2c5.7-4.1,8.3-10.2,8.7-11.3c0.4-1,0.7-2.1,0.9-3
		c0.1-0.5,0.3-1.2,0.4-1.6c0.5-0.2,1.6-0.4,2.3-0.6c1.2-0.3,2.6-0.6,4-1.1h0.1c0.3-0.1,0.5-0.2,0.6-0.2c0,0,0.1,0,0.2,0.1
		c0.7,0.3,1.8,0.6,3.1,0.6c2.9,0,5.3-1.9,5.9-4.8c0.1-0.6,0.2-1.1,0.1-1.7c0.8-3.7-1.6-8-2.6-9.2c0,0,0,0-0.1-0.1
		c-2.2-2.4-5.3-3.3-7.5-3.9l-0.6-0.2c-1.9-0.5-3.9-1.2-6.3-1.2c-0.9,0-1.7,0.1-2.5,0.3c-0.1,0-0.2,0-0.2,0c-0.8-0.6-2.4-1.6-4.9-1.6
		c-3.4,0-11.5,0-13.6,6.3c-0.2,0.2-0.5,0.6-0.8,1.1c0,0,0,0.1-0.1,0.1c-1.2,1.8-1.1,3.6-1,4.6c-0.2,0.7-0.3,1.5-0.5,2.5
		c-0.1,0.7-0.3,1.8-0.5,2.2c0,0,0,0,0,0.1c-0.2,0.4-0.4,1.1-0.7,1.6c-0.5,0-1,0.1-1.4,0.1c-0.7,0-1.2-0.1-1.6-0.2
		c-0.8-0.3-1.7-0.6-2.6-1c-0.6-0.2-1.2-0.4-1.6-0.6c-1.9-0.8-2.7-1.5-2.9-1.7c-0.1-0.1-0.1-0.3-0.2-0.4c-0.3-0.4-0.5-0.8-0.8-1.1
		c-0.4-0.5-0.8-1-0.9-1.4c-0.5-1.9-1.2-3.4-1.7-4.4c-0.1-0.2-0.2-0.4-0.3-0.6c-0.3-0.8-0.6-1.6-1.1-2.4c-0.3-0.7-0.7-1.4-1-2.1
		c-1.1-2.7-2.7-5.2-4.5-6.8c0,0,0,0-0.1-0.1c-0.2-0.2-0.4-0.3-0.6-0.5c-1.3-1.2-3.6-3.5-7.5-3.5l0,0c-0.6,0-1.3,0.1-2,0.2h-0.1
		c-1,0.1-3.6,0.5-5.9,2.3c-1.7,1.3-2.5,3-3,4.3c-0.2,0.4-0.3,0.8-0.5,1.1c-0.5,0.8-0.9,1.8-1.5,3.4c0-0.1-0.1-0.1-0.1-0.2
		c-0.9-1.9-2.4-4.1-3.9-6.2l-0.1-0.1c-2.3-3.3-4.7-4.6-8.6-4.6c-7,0-9.2,4.4-10.6,7.3C6.2,34.4,6,35,5.7,35.5c-0.6,1-1,2.1-1.4,3.1
		s-0.7,1.9-1.2,2.5c-0.4,0.4-0.8,0.9-1.3,1.6C1.5,43.2,0.7,44.1,0,45V51.3z"/>
</g>
</svg>
